<?xml version="1.0" encoding="UTF-8"?>
<svg version="1.1" xmlns="http://www.w3.org/2000/svg" width="512" height="512">
<path d="M0 0 C1.51671886 1.26424817 3.0593383 2.49722026 4.60253906 3.72900391 C19.28864031 15.68237492 33.1902857 29.28168978 44.33349609 44.62451172 C45.62066708 46.38127784 46.9453607 48.10442915 48.27832031 49.82666016 C72.45591287 81.38831197 88.32687017 120.12752123 94.56347656 159.30322266 C94.72428711 160.30675781 94.88509766 161.31029297 95.05078125 162.34423828 C99.15307909 189.19102865 98.85784384 216.50430539 94.56347656 243.30322266 C94.40782227 244.28097656 94.25216797 245.25873047 94.09179688 246.26611328 C83.83070262 307.66882901 48.55341729 366.91574741 -1.70214844 404.01318359 C-3.45613547 405.31781021 -5.18141301 406.65442649 -6.90527344 407.99853516 C-58.49573872 447.71022316 -126.64664264 463.36497081 -190.72607422 455.71557617 C-232.1290536 450.25493496 -271.20213463 435.19680584 -305.43652344 411.30322266 C-306.15565918 410.80177734 -306.87479492 410.30033203 -307.61572266 409.78369141 C-318.02591578 402.43816999 -327.32460976 394.18751632 -336.43652344 385.30322266 C-337.07509277 384.69043457 -337.71366211 384.07764648 -338.37158203 383.44628906 C-346.67181637 375.47831329 -354.27219981 367.3099454 -361.12597656 358.0625 C-362.45449434 356.27909852 -363.81012381 354.5191275 -365.17089844 352.76025391 C-404.6647793 301.10368044 -421.02435224 232.73318877 -412.84033203 168.60058594 C-412.40469949 165.49544331 -411.93264328 162.39924907 -411.43652344 159.30322266 C-411.28086914 158.32546875 -411.12521484 157.34771484 -410.96484375 156.34033203 C-402.66879853 106.69653249 -378.42754956 60.28925426 -343.43652344 24.30322266 C-342.82550781 23.66642578 -342.21449219 23.02962891 -341.58496094 22.37353516 C-333.27930111 13.73697254 -324.82481479 5.71874882 -315.1796875 -1.40234375 C-313.40167473 -2.7226552 -311.64898673 -4.07204745 -309.89746094 -5.42724609 C-231.90738178 -65.10203185 -121.53510399 -69.85830349 0 0 Z " fill="#4B49AC" transform="translate(414.4365234375,54.69677734375)"/>
<path d="M0 0 C7.4672225 0.45619687 14.88398953 1.0672599 22.3125 1.9375 C29.57361138 2.77307909 36.84075933 3.46122671 44.125 4.0625 C45.50619019 4.18129517 45.50619019 4.18129517 46.9152832 4.30249023 C67.36021019 5.93994006 87.87454681 6.23191464 108.375 6.25 C109.59993164 6.25233643 110.82486328 6.25467285 112.08691406 6.25708008 C132.82161989 6.27187137 153.38980976 5.41760095 174.03213501 3.45733643 C177.64193631 3.12815373 181.24348754 2.91916408 184.86645508 2.8425293 C185.60350174 2.82683395 186.3405484 2.81113861 187.09992981 2.79496765 C189 3 189 3 191.19921875 4.86328125 C191.69035156 5.67152344 192.18148437 6.47976562 192.6875 7.3125 C195.41182553 11.28651615 197.22877808 13.53942186 202 15 C203.39587932 15.06236801 204.79429965 15.0800877 206.19140625 15.05859375 C207.44824219 15.03925781 208.70507812 15.01992188 210 15 C213.06446281 43.17520661 213.06446281 43.17520661 213.0234375 53.8828125 C213.02005371 55.03410645 213.01666992 56.18540039 213.01318359 57.37158203 C213.00883301 58.23895996 213.00448242 59.10633789 213 60 C177.44408111 64.96879447 142.22265941 67.27816669 106.32435989 67.31007385 C104.04703143 67.31245091 101.76972362 67.31775948 99.49240112 67.32336426 C83.36639707 67.35244336 67.29749828 67.0610408 51.19921875 66.07421875 C50.19430138 66.01294517 50.19430138 66.01294517 49.16908264 65.95043373 C31.36128833 64.83874849 13.63104271 62.72479751 -4 60 C-4.44361365 46.92161237 -3.66421695 34.02373528 -2.5625 21 C-2.46127335 19.78721375 -2.46127335 19.78721375 -2.35800171 18.54992676 C-2.16166323 16.22031504 -1.95934242 13.89132567 -1.75390625 11.5625 C-1.69343109 10.85905457 -1.63295593 10.15560913 -1.57064819 9.43084717 C-1.2759865 6.20515517 -0.92260777 3.11150092 0 0 Z " fill="#FDFDFE" transform="translate(184,249)"/>
<path d="M0 0 C1.64135674 -0.00810448 1.64135674 -0.00810448 3.31587219 -0.01637268 C6.899748 -0.02878516 10.48280858 -0.01241686 14.06665039 0.00561523 C16.57808982 0.00546006 19.08952949 0.00396807 21.60096741 0.00120544 C26.85190572 -0.00017525 32.10263685 0.01188253 37.35351562 0.03515625 C43.39356161 0.06174534 49.4332231 0.06351347 55.47330755 0.05176789 C61.3215396 0.04092508 67.16963323 0.04733341 73.01785469 0.06132317 C75.48920861 0.06581575 77.96057377 0.06619381 80.43192863 0.06225777 C83.89625493 0.05932275 87.35997002 0.07596262 90.82421875 0.09765625 C91.82977814 0.0931546 92.83533752 0.08865295 93.87136841 0.08401489 C107.79211245 0.22766776 118.93711797 4.41519451 129.47680664 13.50170898 C139.79140151 25.55493821 144.2356412 38.2835056 145.34643555 53.85766602 C145.41500259 54.7450647 145.48356964 55.63246338 145.55421448 56.54675293 C145.77694105 59.45056736 145.99033236 62.35498143 146.20336914 65.25952148 C146.35695623 67.29258922 146.51104767 69.32561891 146.6656189 71.35861206 C146.98723105 75.60637911 147.30453039 79.85443776 147.6184082 84.1027832 C148.02007475 89.53806608 148.42978098 94.97270396 148.84237099 100.40716743 C149.16030094 104.60036716 149.4753568 108.79377862 149.78940964 112.98727036 C149.93955882 114.99111001 150.09027124 116.99490754 150.2415657 118.99866104 C150.45240272 121.80042796 150.65970696 124.60243388 150.8659668 127.40454102 C150.92827988 128.22550262 150.99059296 129.04646423 151.05479431 129.89230347 C151.9880704 142.73481335 151.9880704 142.73481335 149.47680664 146.50170898 C147.28930664 146.43920898 147.28930664 146.43920898 144.47680664 145.50170898 C140.57963045 140.71462642 138.22946458 136.16406108 136.35180664 130.31420898 C135.97342651 129.13592529 135.97342651 129.13592529 135.58740234 127.93383789 C132.01150192 116.2500197 130.51275667 104.63742354 130.21899414 92.43530273 C130.20147598 91.72710388 130.18395782 91.01890503 130.16590881 90.28924561 C130.08514397 86.74400698 130.03505801 83.20167374 130.03027344 79.65551758 C129.92034938 70.83235191 129.11940232 64.08432935 123.53930664 57.06420898 C118.4853999 53.23549176 113.63044777 52.87728059 107.47680664 53.50170898 C99.97790233 54.94633153 94.48586651 58.99259935 88.47680664 63.50170898 C80.03838332 69.80748866 71.76850979 75.55441292 60.78930664 74.91967773 C56.60284065 74.16300229 54.20538497 72.7863483 51.47680664 69.50170898 C47.26029279 62.55467735 44.27965594 55.11766337 41.35180664 47.56420898 C38.47797096 40.20438591 35.74210397 33.56460089 28.12524414 30.15014648 C21.67391338 28.57061712 13.60009986 28.63649336 7.09399414 30.00170898 C-6.02942815 32.50887026 -19.77968315 30.46740494 -32.51391602 27.04174805 C-35.83855765 26.14817486 -39.18232894 25.33224863 -42.52319336 24.50170898 C-39.12536046 14.83487439 -31.41497664 8.95165823 -22.52319336 4.50170898 C-14.91059697 1.10234552 -8.29760253 -0.07961718 0 0 Z " fill="#FDFDFE" transform="translate(241.523193359375,107.498291015625)"/>
<path d="M0 0 C6.59940516 0.48456896 13.16817522 1.11211925 19.73828125 1.90234375 C20.77745193 2.02701523 20.77745193 2.02701523 21.83761597 2.15420532 C24.68136599 2.49615452 27.52495158 2.83876398 30.36694336 3.19506836 C55.93876666 6.38508413 81.59542059 7.38885752 107.34729767 7.31785583 C109.41893191 7.31238396 111.49055461 7.31003853 113.56219482 7.3079834 C145.0065305 7.25950601 175.98640571 5.38827572 207.09765625 0.76953125 C211.79856351 0.09585091 216.25666156 -0.16836819 221 0 C223.38776806 28.15153143 223.38776806 28.15153143 223 40 C209.07684887 42.70036356 195.10755085 44.56285201 181 46 C180.3392749 46.0689447 179.6785498 46.1378894 178.99780273 46.20892334 C138.24022035 50.43855193 96.92401008 50.43647871 56.0625 47.6875 C55.17857574 47.62882751 54.29465149 47.57015503 53.38394165 47.50970459 C41.28151688 46.67649167 29.33986727 45.16080019 17.34840393 43.34515381 C12.48827889 42.63084285 7.61275132 42.03699853 2.73828125 41.4296875 C0 41 0 41 -2 40 C-2.29900074 26.54496689 -1.41663873 13.37894719 0 0 Z " fill="#FDFDFE" transform="translate(178,319)"/>
<path d="M0 0 C4.78361859 -0.1426011 9.25928628 0.24081069 13.98869324 0.9519043 C41.94359062 5.04973517 70.15531738 5.33547963 98.35083008 5.26074219 C102.71696474 5.24926773 107.08285746 5.25616891 111.44898415 5.26764679 C128.49135476 5.305379 145.38464057 5.20325789 162.35522461 3.42871094 C166.59471059 2.99003989 170.73960207 2.9222859 175 3 C175.03867187 4.31097656 175.03867187 4.31097656 175.078125 5.6484375 C175.45893678 13.90512922 176.58400587 21.62116968 178.54003906 29.65576172 C178.71245117 30.36619629 178.88486328 31.07663086 179.0625 31.80859375 C179.21847656 32.42532959 179.37445313 33.04206543 179.53515625 33.67749023 C180.21958827 37.09713403 180.59105151 40.53683061 181 44 C155.13841694 46.68838142 129.52843615 47.44719846 103.53881836 47.3225708 C99.70972065 47.3090465 95.88073719 47.31442478 92.05162621 47.31944466 C55.4855726 47.3554843 55.4855726 47.3554843 37.39624023 45.26306152 C33.67262184 44.85427917 29.9410517 44.54591067 26.20857239 44.23014832 C16.7621248 43.42748046 7.38071269 42.37349999 -2 41 C-2.40784642 27.26917062 -1.16812227 13.67106926 0 0 Z " fill="#FDFDFE" transform="translate(187,198)"/>
<path d="M0 0 C-0.33 7.92 -0.66 15.84 -1 24 C-2.876875 24.2475 -4.75375 24.495 -6.6875 24.75 C-27.04780491 27.92991747 -44.15916722 36.54635581 -56.93359375 53 C-68.14066378 69.27037766 -72.42214568 87.86478341 -69.4921875 107.3828125 C-65.29396197 125.86465593 -55.71243347 142.21011565 -40.0625 153.078125 C-31.85205889 158.2305957 -23.6357035 162.36682991 -14 164 C-13 165 -13 165 -12.8671875 168.0625 C-12.88117464 175.11201934 -13.01840199 182.00611419 -14 189 C-32.89337995 188.90916644 -51.43290993 177.14365767 -65 165 C-65.62132813 164.46117187 -66.24265625 163.92234375 -66.8828125 163.3671875 C-83.34154425 148.1332916 -93.90748663 124.78064691 -95.13867188 102.48925781 C-96.13157844 75.53476488 -89.63633747 52.45577587 -71.625 31.8125 C-51.94883 10.82682381 -28.72486387 0 0 0 Z " fill="#FDFDFE" transform="translate(180,156)"/>
<path d="M0 0 C0.55945313 0.07516846 1.11890625 0.15033691 1.6953125 0.2277832 C14.62873818 1.94712828 27.57304199 3.4109333 40.5625 4.625 C42.52026367 4.80929565 42.52026367 4.80929565 44.51757812 4.99731445 C50.25664846 5.52399498 50.25664846 5.52399498 56 6 C57.58734451 6.12597816 57.58734451 6.12597816 59.20675659 6.25450134 C68.91885796 6.96860398 78.57806298 7.19301339 88.3125 7.23828125 C89.51790215 7.24548502 89.51790215 7.24548502 90.74765587 7.25283432 C96.83176456 7.28864021 102.91579749 7.30434265 109 7.3125 C110.33829046 7.31488867 110.33829046 7.31488867 111.7036171 7.31732559 C133.92179008 7.35101849 156.04517618 7.24185158 178.1875 5.1875 C179.08154541 5.10472809 179.97559082 5.02195618 180.89672852 4.93667603 C191.37281356 3.93174841 201.78562933 2.52503418 212.19120789 0.95561218 C213.02312149 0.83144424 213.8550351 0.70727631 214.7121582 0.5793457 C215.44489456 0.46758499 216.17763092 0.35582428 216.93257141 0.24067688 C219 0 219 0 223 0 C220.04754666 10.95515582 214.32544182 19.41815027 205 26 C193.37828696 32.35320313 184.07438475 34.30116578 170.9934082 34.2746582 C169.57343784 34.27901043 168.15346982 34.28419528 166.73350525 34.29014587 C162.89023477 34.30349643 159.04706288 34.30411865 155.20377374 34.30158257 C151.98604556 34.30050956 148.76833705 34.30540498 145.55061311 34.310188 C137.95145159 34.32127089 130.35233951 34.32172833 122.75317383 34.31567383 C114.93870793 34.30964296 107.12442249 34.32192522 99.30998737 34.3432439 C92.58104033 34.36091981 85.85215041 34.36685161 79.12318105 34.36360615 C75.11320697 34.36180169 71.10336145 34.36434465 67.09340858 34.37832069 C63.31679467 34.39099129 59.5404594 34.38886881 55.76384926 34.37590981 C53.73610314 34.37245508 51.70834814 34.38365538 49.68063354 34.39547729 C34.24361821 34.30779023 21.62415237 30.42562053 10.125 19.8125 C5.24036439 14.64314974 0 7.33533623 0 0 Z " fill="#FDFDFE" transform="translate(177,370)"/>
<path d="M0 0 C5.47463542 0.48023118 10.74281186 1.31691824 16.125 2.4375 C30.7989358 5.42500789 46.2599827 8.28852892 61.015625 4.4609375 C65.71858372 3.36851796 69.62170315 3.28942727 74.015625 5.5546875 C77.54445192 8.44610851 78.95902408 11.35630125 80.5625 15.5 C80.85495605 16.20761475 81.14741211 16.91522949 81.44873047 17.64428711 C82.31810739 19.7558012 83.16289615 21.87551267 84 24 C88.79175371 36.0676177 92.08227046 42.98053661 104 49 C112.78927146 51.92975715 121.58924274 49.26218251 129.6875 45.5 C134.45196169 43.05761181 138.52614058 40.197872 142.6875 36.875 C148.73898957 32.05292866 153.93461358 28.06557075 161.875 27.9375 C165 29 165 29 166.68359375 31.078125 C168.32537794 34.72220386 168.33339937 37.90314511 168.1875 41.8125 C168.17396484 42.50537109 168.16042969 43.19824219 168.14648438 43.91210938 C168.11138845 45.60841265 168.05758943 47.30431136 168 49 C164.8548958 49.32169388 161.70920515 49.63214183 158.5625 49.9375 C157.72267578 50.02451172 156.88285156 50.11152344 156.01757812 50.20117188 C135.49082993 52.15955421 114.78892606 52.207018 94.1875 52.1875 C92.99444244 52.18689575 91.80138489 52.1862915 90.57217407 52.18566895 C58.72533982 52.14217575 27.56671684 50.15287906 -4 46 C-4.11122264 37.34670173 -3.83612191 28.81117984 -3.125 20.1875 C-3.04636719 19.12080078 -2.96773437 18.05410156 -2.88671875 16.95507812 C-2.41589631 11.09152794 -1.62388118 5.656292 0 0 Z " fill="#FCFCFD" transform="translate(193,142)"/>
</svg>
