<?xml version="1.0" encoding="UTF-8"?>
<svg version="1.1" xmlns="http://www.w3.org/2000/svg" width="64" height="64">
<path d="M0 0 C0.98467255 -0.0127597 1.96934509 -0.02551941 2.9838562 -0.03866577 C4.57763596 -0.04200424 4.57763596 -0.04200424 6.20361328 -0.04541016 C7.84416183 -0.05539536 7.84416183 -0.05539536 9.51785278 -0.06558228 C11.83284827 -0.07571305 14.14787299 -0.08039916 16.46289062 -0.08007812 C20.00325742 -0.08444715 23.54237372 -0.12075247 27.08251953 -0.15869141 C29.33121318 -0.16456026 31.57991276 -0.16852919 33.82861328 -0.17041016 C34.88708466 -0.18478119 35.94555603 -0.19915222 37.03610229 -0.21395874 C44.38071643 -0.16835393 44.38071643 -0.16835393 48.23144531 2.13183594 C51.30056264 5.58703526 52.39933977 7.58229701 52.43945312 12.14160156 C52.45221283 13.12627411 52.46497253 14.11094666 52.4781189 15.12545776 C52.48034454 16.1879776 52.48257019 17.25049744 52.48486328 18.34521484 C52.49484848 19.9857634 52.49484848 19.9857634 52.5050354 21.65945435 C52.51516618 23.97444984 52.51985229 26.28947455 52.51953125 28.60449219 C52.52390028 32.14485898 52.5602056 35.68397529 52.59814453 39.22412109 C52.60401339 41.47281474 52.60798232 43.72151432 52.60986328 45.97021484 C52.62423431 47.02868622 52.63860535 48.08715759 52.65341187 49.17770386 C52.60780705 56.52231799 52.60780705 56.52231799 50.30761719 60.37304688 C46.85241787 63.44216421 44.85715611 64.54094133 40.29785156 64.58105469 C39.31317902 64.59381439 38.32850647 64.6065741 37.31399536 64.61972046 C35.72021561 64.62305893 35.72021561 64.62305893 34.09423828 64.62646484 C33.00053925 64.63312164 31.90684021 64.63977844 30.77999878 64.64663696 C28.46500329 64.65676774 26.14997857 64.66145385 23.83496094 64.66113281 C20.29459414 64.66550184 16.75547784 64.70180716 13.21533203 64.73974609 C10.96663838 64.74561495 8.7179388 64.74958388 6.46923828 64.75146484 C5.41076691 64.76583588 4.35229553 64.78020691 3.26174927 64.79501343 C-4.08286487 64.74940861 -4.08286487 64.74940861 -7.93359375 62.44921875 C-11.00271108 58.99401943 -12.1014882 56.99875768 -12.14160156 52.43945312 C-12.15436127 51.45478058 -12.16712097 50.47010803 -12.18026733 49.45559692 C-12.18249298 48.39307709 -12.18471863 47.33055725 -12.18701172 46.23583984 C-12.19366852 45.14214081 -12.20032532 44.04844177 -12.20718384 42.92160034 C-12.21731461 40.60660485 -12.22200073 38.29158013 -12.22167969 35.9765625 C-12.22604871 32.4361957 -12.26235404 28.8970794 -12.30029297 25.35693359 C-12.30616183 23.10823994 -12.31013076 20.85954037 -12.31201172 18.61083984 C-12.32638275 17.55236847 -12.34075378 16.49389709 -12.3555603 15.40335083 C-12.30995549 8.05873669 -12.30995549 8.05873669 -10.00976562 4.20800781 C-6.55456631 1.13889048 -4.55930455 0.04011336 0 0 Z " fill="#4E4CAD" transform="translate(11.85107421875,-0.29052734375)"/>
<path d="M0 0 C2.87868722 1.55601545 4.74250677 3.44648599 6.7980957 5.97192383 C6.49963757 9.38851799 5.0195244 11.15610342 2.70043945 13.58129883 C2.06750977 14.25016113 1.43458008 14.91902344 0.7824707 15.6081543 C-0.23073242 16.65447021 -0.23073242 16.65447021 -1.2644043 17.72192383 C-1.94889648 18.43622559 -2.63338867 19.15052734 -3.33862305 19.88647461 C-4.68858677 21.29257989 -6.04152952 22.69583228 -7.39770508 24.09594727 C-8.8633377 25.61988787 -10.30072997 27.17095153 -11.72924805 28.72973633 C-15.59305269 32.8766316 -18.38313671 35.09361929 -24.2019043 35.97192383 C-25.86845992 35.99116257 -27.53539239 35.99463609 -29.2019043 35.97192383 C-29.77127942 31.77870702 -29.53636848 27.9492751 -27.10955811 24.35333252 C-24.0819126 20.66607103 -20.68404842 17.34683805 -17.23779297 14.05419922 C-15.37960399 12.27504034 -13.56220349 10.46066152 -11.74682617 8.63793945 C-10.58170479 7.49312175 -9.41445882 6.35046142 -8.24487305 5.21020508 C-7.69993698 4.66769608 -7.15500092 4.12518707 -6.59355164 3.5662384 C-2.7803964 -0.03545244 -2.7803964 -0.03545244 0 0 Z " fill="#EEEEF7" transform="translate(47.201904296875,10.028076171875)"/>
<path d="M0 0 C0.89589844 0.00322266 1.79179687 0.00644531 2.71484375 0.00976562 C4.12056641 0.02233398 4.12056641 0.02233398 5.5546875 0.03515625 C6.49957031 0.03966797 7.44445312 0.04417969 8.41796875 0.04882812 C10.75527137 0.06063268 13.09244811 0.07709866 15.4296875 0.09765625 C15.7596875 1.08765625 16.0896875 2.07765625 16.4296875 3.09765625 C15.83953857 3.11747559 15.24938965 3.13729492 14.64135742 3.15771484 C11.96618654 3.25300284 9.29179252 3.36266564 6.6171875 3.47265625 C5.2240332 3.5190625 5.2240332 3.5190625 3.80273438 3.56640625 C2.91005859 3.60507813 2.01738281 3.64375 1.09765625 3.68359375 C0.27547607 3.71501465 -0.5467041 3.74643555 -1.39379883 3.77880859 C-3.85984187 3.98139247 -3.85984187 3.98139247 -6.5703125 6.09765625 C-7.02233861 9.36537708 -7.02233861 9.36537708 -6.93359375 13.22265625 C-6.93409225 13.92535645 -6.93459076 14.62805664 -6.93510437 15.35205078 C-6.93276311 16.8382449 -6.92303138 18.32444292 -6.90649414 19.81054688 C-6.88290315 22.0889013 -6.88593184 24.36608578 -6.89257812 26.64453125 C-7.47347817 33.98741478 -7.47347817 33.98741478 -4.5703125 40.09765625 C-0.17029913 40.49714096 4.24426912 40.42667186 8.66040039 40.41333008 C10.85548671 40.41017308 13.04922135 40.43361386 15.24414062 40.45898438 C16.63801913 40.46125768 18.03190127 40.46196072 19.42578125 40.4609375 C20.69607178 40.46391846 21.9663623 40.46689941 23.27514648 40.4699707 C26.3604988 40.34057725 26.3604988 40.34057725 28.33544922 38.86669922 C29.72848084 36.61460036 29.85727044 35.07155189 29.94140625 32.4296875 C29.97685547 31.53701172 30.01230469 30.64433594 30.04882812 29.72460938 C30.07138672 28.79583984 30.09394531 27.86707031 30.1171875 26.91015625 C30.15134766 25.96978516 30.18550781 25.02941406 30.22070312 24.06054688 C30.30316968 21.73970232 30.37232153 19.41923477 30.4296875 17.09765625 C31.4196875 17.42765625 32.4096875 17.75765625 33.4296875 18.09765625 C33.54636625 21.32651634 33.61709296 24.5548307 33.6796875 27.78515625 C33.72996094 29.15317383 33.72996094 29.15317383 33.78125 30.54882812 C33.84476311 34.9153542 33.86691236 37.38490746 31.5390625 41.1796875 C26.64814596 45.62679865 20.1450624 44.35939344 13.8815918 44.39282227 C11.63593177 44.41001276 9.39175317 44.45389625 7.14648438 44.49804688 C5.71355247 44.50817626 4.28060807 44.5166916 2.84765625 44.5234375 C1.54594482 44.53802002 0.2442334 44.55260254 -1.09692383 44.56762695 C-5.11961195 44.02333268 -6.73070986 42.93659829 -9.5703125 40.09765625 C-11.81066374 35.61695377 -10.838886 29.53213012 -10.86547852 24.54956055 C-10.88266901 22.30390052 -10.9265525 20.05972192 -10.97070312 17.81445312 C-10.98083251 16.38152122 -10.98934785 14.94857682 -10.99609375 13.515625 C-11.01067627 12.21391357 -11.02525879 10.91220215 -11.0402832 9.57104492 C-10.49598893 5.5483568 -9.40925454 3.93725889 -6.5703125 1.09765625 C-4.16971433 -0.10264283 -2.67670601 -0.01694118 0 0 Z " fill="#EFEEF7" transform="translate(20.5703125,9.90234375)"/>
<path d="M0 0 C1.32 0.66 2.64 1.32 4 2 C4 7.41154652 1.91032035 8.63755629 -1.75 12.34570312 C-2.925625 13.50489258 -2.925625 13.50489258 -4.125 14.6875 C-4.88554688 15.47189453 -5.64609375 16.25628906 -6.4296875 17.06445312 C-12.13063199 22.75065379 -12.13063199 22.75065379 -16.5546875 24.01953125 C-17.36164062 24.01308594 -18.16859375 24.00664063 -19 24 C-18.55320448 19.10065602 -17.49070872 16.87914548 -13.96484375 13.4765625 C-12.75151367 12.28740234 -12.75151367 12.28740234 -11.51367188 11.07421875 C-10.66353516 10.26597656 -9.81339844 9.45773438 -8.9375 8.625 C-8.08349609 7.79355469 -7.22949219 6.96210938 -6.34960938 6.10546875 C-4.24390066 4.05857871 -2.12742251 2.02427283 0 0 Z " fill="#504EAE" transform="translate(40,19)"/>
<path d="M0 0 C6.6 0 13.2 0 20 0 C20.33 0.99 20.66 1.98 21 3 C20.11477661 3.03758423 20.11477661 3.03758423 19.21166992 3.07592773 C16.53673186 3.19200052 13.8621362 3.31467572 11.1875 3.4375 C9.7943457 3.49647461 9.7943457 3.49647461 8.37304688 3.55664062 C7.0340332 3.61948242 7.0340332 3.61948242 5.66796875 3.68359375 C4.43469849 3.73858032 4.43469849 3.73858032 3.17651367 3.79467773 C0.82094822 3.93427772 0.82094822 3.93427772 -2 5 C-1.34 3.35 -0.68 1.7 0 0 Z " fill="#E4E3F2" transform="translate(16,10)"/>
<path d="M0 0 C0.99 0.33 1.98 0.66 3 1 C3 7.6 3 14.2 3 21 C1.68 21.33 0.36 21.66 -1 22 C-0.67 14.74 -0.34 7.48 0 0 Z " fill="#E2E2F2" transform="translate(51,27)"/>
<path d="M0 0 C1.32 0.99 2.64 1.98 4 3 C3.67 4.32 3.34 5.64 3 7 C2.01 7 1.02 7 0 7 C-1.6875 5 -1.6875 5 -3 3 C-2.01 2.01 -1.02 1.02 0 0 Z " fill="#5654B1" transform="translate(46,13)"/>
</svg>
