<?xml version="1.0" encoding="UTF-8"?>
<svg version="1.1" xmlns="http://www.w3.org/2000/svg" width="620" height="601">
<path d="M0 0 C1.51671886 1.26424817 3.0593383 2.49722026 4.60253906 3.72900391 C19.28864031 15.68237492 33.1902857 29.28168978 44.33349609 44.62451172 C45.62066708 46.38127784 46.9453607 48.10442915 48.27832031 49.82666016 C72.45591287 81.38831197 88.32687017 120.12752123 94.56347656 159.30322266 C94.72428711 160.30675781 94.88509766 161.31029297 95.05078125 162.34423828 C101.20708607 202.63312794 97.89155328 244.73687301 84.56347656 283.30322266 C85.55021362 283.47543335 85.55021362 283.47543335 86.55688477 283.65112305 C123.50371933 290.22823152 155.55426325 305.17805913 178.18920898 336.31591797 C187.58410601 349.90171683 194.07104143 364.43942494 198.56347656 380.30322266 C198.90507813 381.48142578 199.24667969 382.65962891 199.59863281 383.87353516 C203.93663992 402.23440246 203.78883686 426.20321037 198.56347656 444.30322266 C198.37543457 444.98884277 198.18739258 445.67446289 197.99365234 446.38085938 C188.72140969 479.6119279 166.423732 507.37627321 136.56396484 524.44628906 C106.67290795 540.84287517 71.17784002 545.20430682 38.31347656 535.86181641 C17.53504113 529.54894993 0.33722095 519.2270347 -15.43652344 504.30322266 C-16.67208984 503.16433594 -16.67208984 503.16433594 -17.93261719 502.00244141 C-37.1158816 483.71698968 -46.41110343 460.35037223 -53.43652344 435.30322266 C-54.64824219 435.81111328 -55.85996094 436.31900391 -57.10839844 436.84228516 C-120.71402084 463.13243805 -191.75555052 464.63965585 -255.79663086 438.60546875 C-273.415637 431.2105991 -289.77142623 422.2365361 -305.43652344 411.30322266 C-306.15565918 410.80177734 -306.87479492 410.30033203 -307.61572266 409.78369141 C-318.02591578 402.43816999 -327.32460976 394.18751632 -336.43652344 385.30322266 C-337.07509277 384.69043457 -337.71366211 384.07764648 -338.37158203 383.44628906 C-346.67181637 375.47831329 -354.27219981 367.3099454 -361.12597656 358.0625 C-362.45449434 356.27909852 -363.81012381 354.5191275 -365.17089844 352.76025391 C-404.6647793 301.10368044 -421.02435224 232.73318877 -412.84033203 168.60058594 C-412.40469949 165.49544331 -411.93264328 162.39924907 -411.43652344 159.30322266 C-411.28086914 158.32546875 -411.12521484 157.34771484 -410.96484375 156.34033203 C-402.66879853 106.69653249 -378.42754956 60.28925426 -343.43652344 24.30322266 C-342.82550781 23.66642578 -342.21449219 23.02962891 -341.58496094 22.37353516 C-333.27930111 13.73697254 -324.82481479 5.71874882 -315.1796875 -1.40234375 C-313.40167473 -2.7226552 -311.64898673 -4.07204745 -309.89746094 -5.42724609 C-231.90738178 -65.10203185 -121.53510399 -69.85830349 0 0 Z " fill="#4B49AC" transform="translate(414.4365234375,54.69677734375)"/>
<path d="M0 0 C7.4672225 0.45619687 14.88398953 1.0672599 22.3125 1.9375 C29.57361138 2.77307909 36.84075933 3.46122671 44.125 4.0625 C45.50619019 4.18129517 45.50619019 4.18129517 46.9152832 4.30249023 C67.36021019 5.93994006 87.87454681 6.23191464 108.375 6.25 C109.59993164 6.25233643 110.82486328 6.25467285 112.08691406 6.25708008 C132.82161989 6.27187137 153.38980976 5.41760095 174.03213501 3.45733643 C177.64193631 3.12815373 181.24348754 2.91916408 184.86645508 2.8425293 C185.60350174 2.82683395 186.3405484 2.81113861 187.09992981 2.79496765 C189 3 189 3 191.19921875 4.86328125 C191.69035156 5.67152344 192.18148437 6.47976562 192.6875 7.3125 C195.41182553 11.28651615 197.22877808 13.53942186 202 15 C203.39587932 15.06236801 204.79429965 15.0800877 206.19140625 15.05859375 C207.44824219 15.03925781 208.70507812 15.01992188 210 15 C213.06446281 43.17520661 213.06446281 43.17520661 213.0234375 53.8828125 C213.02005371 55.03410645 213.01666992 56.18540039 213.01318359 57.37158203 C213.00883301 58.23895996 213.00448242 59.10633789 213 60 C177.44408111 64.96879447 142.22265941 67.27816669 106.32435989 67.31007385 C104.04703143 67.31245091 101.76972362 67.31775948 99.49240112 67.32336426 C83.36639707 67.35244336 67.29749828 67.0610408 51.19921875 66.07421875 C50.19430138 66.01294517 50.19430138 66.01294517 49.16908264 65.95043373 C31.36128833 64.83874849 13.63104271 62.72479751 -4 60 C-4.44361365 46.92161237 -3.66421695 34.02373528 -2.5625 21 C-2.46127335 19.78721375 -2.46127335 19.78721375 -2.35800171 18.54992676 C-2.16166323 16.22031504 -1.95934242 13.89132567 -1.75390625 11.5625 C-1.69343109 10.85905457 -1.63295593 10.15560913 -1.57064819 9.43084717 C-1.2759865 6.20515517 -0.92260777 3.11150092 0 0 Z " fill="#FDFDFE" transform="translate(184,249)"/>
<path d="M0 0 C0.9473703 -0.00571014 1.8947406 -0.01142029 2.87081909 -0.01730347 C3.90356964 -0.01842133 4.93632019 -0.01953918 6.00036621 -0.02069092 C7.09358185 -0.02565582 8.18679749 -0.03062073 9.31314087 -0.03573608 C12.9348005 -0.05035553 16.55641627 -0.05716096 20.17810059 -0.06268311 C22.69954428 -0.06843669 25.22098796 -0.0741944 27.74243164 -0.07995605 C32.35869316 -0.08912347 36.97494157 -0.09542267 41.59120989 -0.09845281 C48.35919868 -0.10292086 55.12698424 -0.12041095 61.89491129 -0.1494534 C67.77672415 -0.1738059 73.65847016 -0.18140364 79.54032898 -0.18312836 C82.03123579 -0.18614354 84.52214198 -0.19413347 87.01301575 -0.20731354 C90.51155665 -0.22449729 94.00961195 -0.22246309 97.50817871 -0.21600342 C98.52473541 -0.2252182 99.54129211 -0.23443298 100.58865356 -0.243927 C114.54665152 -0.16378275 125.70719293 4.03240106 136.27185059 13.14044189 C146.58644545 25.19367112 151.03068514 37.92223851 152.14147949 53.49639893 C152.21004654 54.38379761 152.27861359 55.27119629 152.34925842 56.18548584 C152.571985 59.08930027 152.7853763 61.99371434 152.99841309 64.89825439 C153.15200017 66.93132213 153.30609161 68.96435182 153.46066284 70.99734497 C153.78227499 75.24511202 154.09957434 79.49317067 154.41345215 83.74151611 C154.8151187 89.17679899 155.22482493 94.61143687 155.63741493 100.04590034 C155.95534488 104.23910007 156.27040074 108.43251153 156.58445358 112.62600327 C156.73460276 114.62984292 156.88531518 116.63364045 157.03660965 118.63739395 C157.24744666 121.43916087 157.45475091 124.24116679 157.66101074 127.04327393 C157.72332382 127.86423553 157.7856369 128.68519714 157.84983826 129.53103638 C158.78311434 142.37354626 158.78311434 142.37354626 156.27185059 146.14044189 C154.08435059 146.07794189 154.08435059 146.07794189 151.27185059 145.14044189 C147.3746744 140.35335933 145.02450852 135.80279399 143.14685059 129.95294189 C142.76847046 128.7746582 142.76847046 128.7746582 142.38244629 127.5725708 C138.80654587 115.88875261 137.30780062 104.27615645 137.01403809 92.07403564 C136.99651993 91.36583679 136.97900177 90.65763794 136.96095276 89.92797852 C136.88018791 86.38273989 136.83010195 82.84040665 136.82531738 79.29425049 C136.71539332 70.47108482 135.91444626 63.72306226 130.33435059 56.70294189 C125.28044385 52.87422467 120.42549172 52.5160135 114.27185059 53.14044189 C106.77294627 54.58506444 101.28091045 58.63133226 95.27185059 63.14044189 C86.83342726 69.44622157 78.56355374 75.19314583 67.58435059 74.55841064 C63.3978846 73.8017352 61.00042891 72.42508121 58.27185059 69.14044189 C54.05533673 62.19341026 51.07469988 54.75639628 48.14685059 47.20294189 C45.27301491 39.84311882 42.53714792 33.2033338 34.92028809 29.78887939 C28.46895732 28.20935003 20.3951438 28.27522627 13.88903809 29.64044189 C0.76561579 32.14760317 -12.98463921 30.10613785 -25.71887207 26.68048096 C-29.0435137 25.78690777 -32.38728499 24.97098154 -35.72814941 24.14044189 C-33.24785054 15.32160145 -25.36340039 9.43606723 -17.72814941 5.14044189 C-11.85229805 2.1883689 -6.63740339 0.02403699 0 0 Z " fill="#FDFDFE" transform="translate(234.7281494140625,107.85955810546875)"/>
<path d="M0 0 C10.79591498 8.81596918 18.19425514 22.49523087 19.6484375 36.33984375 C20.89211855 52.23982762 16.78944063 66.51919127 6.546875 78.875 C-2.89468692 88.86704168 -15.90493633 96.00333906 -29.79296875 96.578125 C-45.10893642 96.91163352 -55.69461534 94.36282239 -68.3515625 85.33984375 C-69.4034375 84.59734375 -70.4553125 83.85484375 -71.5390625 83.08984375 C-82.05976654 72.80293313 -88.32640875 60.1082326 -88.64379883 45.39770508 C-88.71383235 36.34144212 -88.27105095 28.68164977 -84.3515625 20.33984375 C-84.0009375 19.55738281 -83.6503125 18.77492188 -83.2890625 17.96875 C-76.37277135 4.11215279 -64.54757882 -4.48573855 -50.33203125 -9.71484375 C-32.60006441 -15.33887517 -14.83606114 -10.47396343 0 0 Z " fill="#4B49AC" transform="translate(505.3515625,406.66015625)"/>
<path d="M0 0 C6.59940516 0.48456896 13.16817522 1.11211925 19.73828125 1.90234375 C20.77745193 2.02701523 20.77745193 2.02701523 21.83761597 2.15420532 C24.68136599 2.49615452 27.52495158 2.83876398 30.36694336 3.19506836 C55.93876666 6.38508413 81.59542059 7.38885752 107.34729767 7.31785583 C109.41893191 7.31238396 111.49055461 7.31003853 113.56219482 7.3079834 C145.0065305 7.25950601 175.98640571 5.38827572 207.09765625 0.76953125 C211.79856351 0.09585091 216.25666156 -0.16836819 221 0 C223.38776806 28.15153143 223.38776806 28.15153143 223 40 C209.07684887 42.70036356 195.10755085 44.56285201 181 46 C180.3392749 46.0689447 179.6785498 46.1378894 178.99780273 46.20892334 C138.24022035 50.43855193 96.92401008 50.43647871 56.0625 47.6875 C55.17857574 47.62882751 54.29465149 47.57015503 53.38394165 47.50970459 C41.28151688 46.67649167 29.33986727 45.16080019 17.34840393 43.34515381 C12.48827889 42.63084285 7.61275132 42.03699853 2.73828125 41.4296875 C0 41 0 41 -2 40 C-2.29900074 26.54496689 -1.41663873 13.37894719 0 0 Z " fill="#FDFDFE" transform="translate(178,319)"/>
<path d="M0 0 C15.32448093 12.47204225 25.20321355 28.23629454 28.6875 47.875 C28.8160418 49.2479358 28.91800631 50.62349983 29 52 C29.07927734 53.28777344 29.07927734 53.28777344 29.16015625 54.6015625 C29.67051773 71.06626778 25.49658116 88.03363503 15 101 C16.5119976 104.55902531 18.58533288 106.81703129 21.32617188 109.52148438 C22.22049927 110.40920532 23.11482666 111.29692627 24.03625488 112.21154785 C24.51405899 112.68111404 24.9918631 113.15068024 25.48414612 113.63447571 C26.98504738 115.10976932 28.47954082 116.59129174 29.97253418 118.07458496 C33.14279762 121.22202888 36.32081755 124.36156861 39.5 127.5 C43.18494294 131.13770899 46.86661497 134.77860347 50.53993225 138.42805481 C52.01049524 139.88567787 53.48696438 141.33713288 54.96374512 142.78845215 C55.85807251 143.6761731 56.7523999 144.56389404 57.67382812 145.47851562 C58.46277466 146.25698853 59.25172119 147.03546143 60.0645752 147.83752441 C63.065089 151.19003795 64.03713252 152.96028939 63.875 157.5 C62.898503 161.405988 62.38216497 162.83194553 59 165 C54.9909653 165.73498969 52.58208116 166.08907134 49.17279053 163.7421875 C43.73234646 158.76988433 38.53778964 153.58695099 33.390625 148.3125 C31.56700006 146.46165432 29.74276368 144.61141092 27.91796875 142.76171875 C25.06499947 139.86675747 22.21640075 136.9677421 19.37939453 134.05712891 C16.62580385 131.23301103 13.85236602 128.42883949 11.078125 125.625 C10.22704163 124.74497314 9.37595825 123.86494629 8.49908447 122.95825195 C7.7043573 122.15991943 6.90963013 121.36158691 6.09082031 120.5390625 C5.3954718 119.82959473 4.70012329 119.12012695 3.98370361 118.38916016 C2.11983024 116.76865813 2.11983024 116.76865813 -0.06134033 117.17211914 C-2.43317599 118.1849825 -4.64171645 119.43508998 -6.86938477 120.73046875 C-23.56118693 130.3342682 -43.20658367 133.33456011 -62.03515625 128.50830078 C-81.35218155 122.82450273 -97.42290718 110.31933366 -107.24462891 92.64794922 C-116.44705935 74.98847113 -117.9613473 54.85631161 -112.38671875 35.74609375 C-108.23856327 24.54023149 -102.59821157 15.38144993 -94 7 C-93.26394531 6.23171875 -92.52789062 5.4634375 -91.76953125 4.671875 C-67.31143251 -19.41750868 -27.18054583 -19.55019533 0 0 Z M-85 23 C-96.01558113 36.30547218 -98.20738198 51.356552 -97 68 C-95.4769366 76.59007759 -91.98647781 83.89269112 -87 91 C-86.58363281 91.61230469 -86.16726563 92.22460938 -85.73828125 92.85546875 C-78.32068365 102.58967341 -65.77913632 109.38764813 -54 112 C-37.73481143 113.38163582 -22.63966114 111.28808225 -9.47265625 101.03125 C1.29532896 91.83393331 8.83878793 80.22430391 11 66 C12.09419301 49.33459882 8.3675492 34.72889016 -2.3125 21.625 C-13.17711625 10.1312523 -27.58364029 4.12419469 -43.1875 3.625 C-60.158151 3.89707457 -73.40367741 10.94143232 -85 23 Z " fill="#FDFDFE" transform="translate(514,391)"/>
<path d="M0 0 C4.78361859 -0.1426011 9.25928628 0.24081069 13.98869324 0.9519043 C41.94359062 5.04973517 70.15531738 5.33547963 98.35083008 5.26074219 C102.71696474 5.24926773 107.08285746 5.25616891 111.44898415 5.26764679 C128.49135476 5.305379 145.38464057 5.20325789 162.35522461 3.42871094 C166.59471059 2.99003989 170.73960207 2.9222859 175 3 C175.03867187 4.31097656 175.03867187 4.31097656 175.078125 5.6484375 C175.45893678 13.90512922 176.58400587 21.62116968 178.54003906 29.65576172 C178.71245117 30.36619629 178.88486328 31.07663086 179.0625 31.80859375 C179.21847656 32.42532959 179.37445313 33.04206543 179.53515625 33.67749023 C180.21958827 37.09713403 180.59105151 40.53683061 181 44 C155.13841694 46.68838142 129.52843615 47.44719846 103.53881836 47.3225708 C99.70972065 47.3090465 95.88073719 47.31442478 92.05162621 47.31944466 C55.4855726 47.3554843 55.4855726 47.3554843 37.39624023 45.26306152 C33.67262184 44.85427917 29.9410517 44.54591067 26.20857239 44.23014832 C16.7621248 43.42748046 7.38071269 42.37349999 -2 41 C-2.40784642 27.26917062 -1.16812227 13.67106926 0 0 Z " fill="#FDFDFE" transform="translate(187,198)"/>
<path d="M0 0 C-0.33 7.92 -0.66 15.84 -1 24 C-2.876875 24.2475 -4.75375 24.495 -6.6875 24.75 C-27.04780491 27.92991747 -44.15916722 36.54635581 -56.93359375 53 C-68.14066378 69.27037766 -72.42214568 87.86478341 -69.4921875 107.3828125 C-65.29396197 125.86465593 -55.71243347 142.21011565 -40.0625 153.078125 C-31.85205889 158.2305957 -23.6357035 162.36682991 -14 164 C-13 165 -13 165 -12.8671875 168.0625 C-12.88117464 175.11201934 -13.01840199 182.00611419 -14 189 C-32.89337995 188.90916644 -51.43290993 177.14365767 -65 165 C-65.62132813 164.46117187 -66.24265625 163.92234375 -66.8828125 163.3671875 C-83.34154425 148.1332916 -93.90748663 124.78064691 -95.13867188 102.48925781 C-96.13157844 75.53476488 -89.63633747 52.45577587 -71.625 31.8125 C-51.94883 10.82682381 -28.72486387 0 0 0 Z " fill="#FDFDFE" transform="translate(180,156)"/>
<path d="M0 0 C0.55945313 0.07516846 1.11890625 0.15033691 1.6953125 0.2277832 C14.62873818 1.94712828 27.57304199 3.4109333 40.5625 4.625 C42.52026367 4.80929565 42.52026367 4.80929565 44.51757812 4.99731445 C50.25664846 5.52399498 50.25664846 5.52399498 56 6 C57.58734451 6.12597816 57.58734451 6.12597816 59.20675659 6.25450134 C68.91885796 6.96860398 78.57806298 7.19301339 88.3125 7.23828125 C89.51790215 7.24548502 89.51790215 7.24548502 90.74765587 7.25283432 C96.83176456 7.28864021 102.91579749 7.30434265 109 7.3125 C110.33829046 7.31488867 110.33829046 7.31488867 111.7036171 7.31732559 C133.92179008 7.35101849 156.04517618 7.24185158 178.1875 5.1875 C179.08154541 5.10472809 179.97559082 5.02195618 180.89672852 4.93667603 C191.37281356 3.93174841 201.78562933 2.52503418 212.19120789 0.95561218 C213.02312149 0.83144424 213.8550351 0.70727631 214.7121582 0.5793457 C215.44489456 0.46758499 216.17763092 0.35582428 216.93257141 0.24067688 C219 0 219 0 223 0 C221.84521079 5.13239649 219.52348003 7.9315511 216.03515625 11.65625 C213.7138983 14.32948372 211.84913444 17.18742979 209.875 20.125 C205.03884808 26.68361699 199.60765799 29.42709377 192 32 C190.60149055 32.52009895 190.60149055 32.52009895 189.17472839 33.05070496 C183.27015397 34.70535799 177.07330661 34.28697864 170.9934082 34.2746582 C169.57343784 34.27901043 168.15346982 34.28419528 166.73350525 34.29014587 C162.89023477 34.30349643 159.04706288 34.30411865 155.20377374 34.30158257 C151.98604556 34.30050956 148.76833705 34.30540498 145.55061311 34.310188 C137.95145159 34.32127089 130.35233951 34.32172833 122.75317383 34.31567383 C114.93870793 34.30964296 107.12442249 34.32192522 99.30998737 34.3432439 C92.58104033 34.36091981 85.85215041 34.36685161 79.12318105 34.36360615 C75.11320697 34.36180169 71.10336145 34.36434465 67.09340858 34.37832069 C63.31679467 34.39099129 59.5404594 34.38886881 55.76384926 34.37590981 C53.73610314 34.37245508 51.70834814 34.38365538 49.68063354 34.39547729 C34.24361821 34.30779023 21.62415237 30.42562053 10.125 19.8125 C5.24036439 14.64314974 0 7.33533623 0 0 Z " fill="#FDFDFE" transform="translate(177,370)"/>
<path d="M0 0 C5.47463542 0.48023118 10.74281186 1.31691824 16.125 2.4375 C30.7989358 5.42500789 46.2599827 8.28852892 61.015625 4.4609375 C65.71858372 3.36851796 69.62170315 3.28942727 74.015625 5.5546875 C77.54445192 8.44610851 78.95902408 11.35630125 80.5625 15.5 C80.85495605 16.20761475 81.14741211 16.91522949 81.44873047 17.64428711 C82.31810739 19.7558012 83.16289615 21.87551267 84 24 C88.79175371 36.0676177 92.08227046 42.98053661 104 49 C112.78927146 51.92975715 121.58924274 49.26218251 129.6875 45.5 C134.45196169 43.05761181 138.52614058 40.197872 142.6875 36.875 C148.73898957 32.05292866 153.93461358 28.06557075 161.875 27.9375 C165 29 165 29 166.68359375 31.078125 C168.32537794 34.72220386 168.33339937 37.90314511 168.1875 41.8125 C168.17396484 42.50537109 168.16042969 43.19824219 168.14648438 43.91210938 C168.11138845 45.60841265 168.05758943 47.30431136 168 49 C164.8548958 49.32169388 161.70920515 49.63214183 158.5625 49.9375 C157.72267578 50.02451172 156.88285156 50.11152344 156.01757812 50.20117188 C135.49082993 52.15955421 114.78892606 52.207018 94.1875 52.1875 C92.99444244 52.18689575 91.80138489 52.1862915 90.57217407 52.18566895 C58.72533982 52.14217575 27.56671684 50.15287906 -4 46 C-4.11122264 37.34670173 -3.83612191 28.81117984 -3.125 20.1875 C-3.04636719 19.12080078 -2.96773437 18.05410156 -2.88671875 16.95507812 C-2.41589631 11.09152794 -1.62388118 5.656292 0 0 Z " fill="#FCFCFD" transform="translate(193,142)"/>
</svg>
