<?xml version="1.0" encoding="UTF-8"?>
<svg version="1.1" xmlns="http://www.w3.org/2000/svg" width="512" height="512">
<path d="M0 0 C1.01790619 0.00215515 2.03581238 0.0043103 3.08456421 0.00653076 C17.69363523 0.05620146 32.02575853 0.30709809 46.375 3.3125 C47.34985352 3.51117676 48.32470703 3.70985352 49.32910156 3.91455078 C97.7109774 14.03517194 141.69928269 35.9516877 177.375 70.3125 C178.3640332 71.26068604 178.3640332 71.26068604 179.37304688 72.22802734 C188.86130305 81.37247479 197.6012044 90.66984009 205.375 101.3125 C206.23306152 102.46355017 207.09113451 103.61459177 207.94921875 104.765625 C213.98736829 112.95680614 219.34595521 121.47054105 224.375 130.3125 C224.73948242 130.94430176 225.10396484 131.57610352 225.47949219 132.22705078 C247.08534998 169.97532572 256.85198095 212.74189997 256.6875 255.9375 C256.68534485 256.95540619 256.6831897 257.97331238 256.68096924 259.02206421 C256.63129854 273.63113523 256.38040191 287.96325853 253.375 302.3125 C253.07698486 303.77478027 253.07698486 303.77478027 252.77294922 305.26660156 C242.65232806 353.6484774 220.7358123 397.63678269 186.375 433.3125 C185.74287598 433.97185547 185.11075195 434.63121094 184.45947266 435.31054688 C175.31502521 444.79880305 166.01765991 453.5387044 155.375 461.3125 C154.22394983 462.17056152 153.07290823 463.02863451 151.921875 463.88671875 C143.73224019 469.92427396 135.22961724 475.30707302 126.375 480.3125 C125.66778809 480.7146875 124.96057617 481.116875 124.23193359 481.53125 C101.09654164 494.5566741 75.92537591 503.30551461 49.9375 508.625 C49.21860596 508.77235596 48.49971191 508.91971191 47.7590332 509.0715332 C33.08339502 511.86090125 18.55831162 512.66142619 3.64770508 512.62817383 C0.70811513 512.6250221 -2.2304558 512.64854926 -5.16992188 512.67382812 C-18.54306192 512.71848737 -31.43916711 511.51301542 -44.625 509.3125 C-46.33055054 509.03031616 -46.33055054 509.03031616 -48.07055664 508.74243164 C-91.33802759 500.97044532 -132.38793216 480.98345309 -165.625 452.3125 C-166.37007813 451.67828125 -167.11515625 451.0440625 -167.8828125 450.390625 C-181.38779833 438.57948485 -194.05918743 425.82889772 -204.625 411.3125 C-205.48149066 410.16255169 -206.33826433 409.01281411 -207.1953125 407.86328125 C-213.23534209 399.67315742 -218.61867614 391.16870382 -223.625 382.3125 C-224.0271875 381.60528809 -224.429375 380.89807617 -224.84375 380.16943359 C-237.8691741 357.03404164 -246.61801461 331.86287591 -251.9375 305.875 C-252.08485596 305.15610596 -252.23221191 304.43721191 -252.3840332 303.6965332 C-255.35789088 288.05024391 -255.99800362 272.57681954 -255.9375 256.6875 C-255.93534485 255.66959381 -255.9331897 254.65168762 -255.93096924 253.60293579 C-255.88129854 238.99386477 -255.63040191 224.66174147 -252.625 210.3125 C-252.42632324 209.33764648 -252.22764648 208.36279297 -252.02294922 207.35839844 C-241.90232806 158.9765226 -219.9858123 114.98821731 -185.625 79.3125 C-184.99287598 78.65314453 -184.36075195 77.99378906 -183.70947266 77.31445312 C-174.56502521 67.82619695 -165.26765991 59.0862956 -154.625 51.3125 C-153.47394983 50.45443848 -152.32290823 49.59636549 -151.171875 48.73828125 C-142.98224019 42.70072604 -134.47961724 37.31792698 -125.625 32.3125 C-124.91778809 31.9103125 -124.21057617 31.508125 -123.48193359 31.09375 C-100.34654164 18.0683259 -75.17537591 9.31948539 -49.1875 4 C-48.46860596 3.85264404 -47.74971191 3.70528809 -47.0090332 3.5534668 C-31.36274391 0.57960912 -15.88931954 -0.06050362 0 0 Z " fill="#4B49AC" transform="translate(255.625,-0.3125)"/>
<path d="M0 0 C0.79148437 0.64453125 1.58296875 1.2890625 2.3984375 1.953125 C17.90899696 15.16401161 30.17095456 34.12170715 35 54 C35.44279297 55.81371094 35.44279297 55.81371094 35.89453125 57.6640625 C42.38666581 87.22330329 36.77892661 117.351655 21 143 C18.53895008 146.54805285 15.87267999 149.78080997 13 153 C12.33742188 153.804375 11.67484375 154.60875 10.9921875 155.4375 C-5.04845064 174.37847493 -29.49173044 187.67428609 -54.19140625 190.7578125 C-67.32677706 191.59308736 -81.15529902 192.24379967 -94 189 C-95.06347656 188.75507813 -96.12695312 188.51015625 -97.22265625 188.2578125 C-123.81969419 181.48111512 -147.98525418 164.24554313 -162.37353516 140.7578125 C-173.30165228 121.92782607 -178.39387005 103.76722562 -178.25 81.875 C-178.25773437 80.69035156 -178.26546875 79.50570312 -178.2734375 78.28515625 C-178.22094145 54.47819663 -169.11475818 32.2158896 -154 14 C-153.31421875 13.15050781 -152.6284375 12.30101562 -151.921875 11.42578125 C-142.27294374 0.04361604 -130.14916442 -8.17614453 -117 -15 C-116.07703125 -15.48210937 -115.1540625 -15.96421875 -114.203125 -16.4609375 C-76.9157579 -34.66335043 -31.11057609 -25.87202547 0 0 Z " fill="#4B49AC" transform="translate(291,138)"/>
<path d="M0 0 C4.357458 3.62489984 8.5790601 7.34529651 12.6953125 11.2421875 C13.57960938 12.06203125 14.46390625 12.881875 15.375 13.7265625 C40.86529322 38.13369879 55.91838004 73.52573611 56.93359375 108.7265625 C57.34969303 135.86631157 52.69196982 159.24620253 40.1953125 183.4296875 C39.53776978 184.70295898 39.53776978 184.70295898 38.86694336 186.00195312 C35.69840025 191.89745897 31.94802725 197.08072659 27.6953125 202.2421875 C29.13853307 205.55040003 30.92875908 207.71729342 33.48423767 210.25143433 C34.273582 211.0391925 35.06292633 211.82695068 35.87619019 212.63858032 C37.17678879 213.92132339 37.17678879 213.92132339 38.50366211 215.22998047 C39.904075 216.62344459 41.30448666 218.01690994 42.70485222 219.41042161 C44.20921728 220.90553552 45.71601612 222.39815753 47.22349358 223.8901329 C50.36824853 227.00303703 53.50479866 230.12412052 56.64002991 233.24661255 C64.42924761 241.00176417 72.22770927 248.74760248 80.03106689 256.48852539 C86.09479809 262.50376666 92.15529032 268.52218376 98.2052899 274.55124009 C101.3191734 277.65362061 104.43986374 280.74893336 107.56588161 283.83908439 C109.96912169 286.21856803 112.36254527 288.60785214 114.75756836 290.99560547 C115.62260986 291.84671906 116.48765137 292.69783264 117.37890625 293.57473755 C122.84168552 299.04602426 127.12116055 303.63242805 127.1328125 311.7421875 C126.97826583 316.70111984 126.10116061 319.47782907 122.6953125 323.2421875 C118.44030651 327.22582831 115.45751335 329.40400195 109.5703125 329.6171875 C108.66023438 329.66617187 107.75015625 329.71515625 106.8125 329.765625 C98.19429591 328.3184579 92.02911719 320.99104746 86.15820312 315.0456543 C85.24019928 314.12808853 84.32219543 313.21052277 83.37637329 312.26515198 C80.87843146 309.76806517 78.3897995 307.26188792 75.90282631 304.75388312 C73.29508692 302.1272941 70.67875681 299.50928988 68.06335449 296.89033508 C63.12058439 291.93826874 58.18550673 286.97861029 53.25319624 282.01612836 C47.63393579 276.36324825 42.00607769 270.71896082 36.37750721 265.07535303 C24.80723161 253.4737833 13.24771583 241.86155446 1.6953125 230.2421875 C0.6007373 230.86383789 -0.49383789 231.48548828 -1.62158203 232.12597656 C-2.54512985 232.65049408 -2.54512985 232.65049408 -3.48733521 233.18560791 C-6.10359893 234.70666184 -8.63319528 236.35756915 -11.1796875 237.9921875 C-43.70452733 258.22116772 -82.86080746 264.64043193 -120.3046875 256.2421875 C-156.16441474 247.55065143 -189.78918053 224.79237815 -209.3046875 193.2421875 C-220.18699502 174.97880402 -227.33804226 156.28254836 -230.3046875 135.2421875 C-230.47597168 134.31374023 -230.64725586 133.38529297 -230.82373047 132.42871094 C-233.1919092 116.73862523 -232.33650836 98.53530109 -228.3046875 83.2421875 C-228.02625 82.0253125 -227.7478125 80.8084375 -227.4609375 79.5546875 C-218.41924569 42.14079036 -193.90998807 11.76720712 -161.95703125 -8.92578125 C-112.58047543 -38.78271617 -45.56906479 -35.88408644 0 0 Z M-169.69628906 43.83398438 C-186.69034078 64.26571775 -195.47815643 87.34846426 -195.4921875 113.8671875 C-195.50443359 115.06214844 -195.51667969 116.25710937 -195.52929688 117.48828125 C-195.54712064 128.45583911 -194.56298498 139.14823715 -190.7421875 149.4921875 C-190.48679199 150.19545166 -190.23139648 150.89871582 -189.96826172 151.62329102 C-185.30004975 163.97911336 -179.10738132 175.35634972 -170.3046875 185.2421875 C-169.6653125 186.03496094 -169.0259375 186.82773437 -168.3671875 187.64453125 C-155.30709357 203.30180295 -135.87941577 214.88739861 -116.3046875 220.2421875 C-115.58023438 220.45359375 -114.85578125 220.665 -114.109375 220.8828125 C-86.44769902 228.47621375 -55.72902636 222.30309547 -31.1875 208.56640625 C-26.11951304 205.60987699 -21.67739802 202.14422432 -17.3046875 198.2421875 C-16.5003125 197.57960938 -15.6959375 196.91703125 -14.8671875 196.234375 C5.26584309 179.18421472 18.20462487 153.46671792 20.6953125 127.2421875 C22.43165992 98.65536623 16.87615051 69.80372621 -2.28125 47.50390625 C-2.94898438 46.75753906 -3.61671875 46.01117188 -4.3046875 45.2421875 C-5.01367188 44.40300781 -5.72265625 43.56382812 -6.453125 42.69921875 C-22.47689535 24.11726752 -47.59788438 9.73295464 -72.3046875 7.2421875 C-109.41569724 5.09911785 -144.65247022 15.18737054 -169.69628906 43.83398438 Z " fill="#FDFDFE" transform="translate(308.3046875,105.7578125)"/>
</svg>
